<svg width="21" height="22" viewBox="0 0 21 22" fill="none" xmlns="http://www.w3.org/2000/svg">
<g clip-path="url(#clip0_1334_24686)">
<path d="M10.2753 16.9394H11.5301C11.5301 16.9394 11.9095 16.8974 12.1024 16.6887C12.281 16.4971 12.2744 16.1374 12.2744 16.1374C12.2744 16.1374 12.2495 14.4534 13.0318 14.2053C13.8023 13.9612 14.792 15.8329 15.8407 16.5535C16.6335 17.0983 17.236 16.9788 17.236 16.9788L20.041 16.9394C20.041 16.9394 21.5085 16.8489 20.8128 15.6951C20.7564 15.6006 20.4072 14.8419 18.7271 13.2825C16.9682 11.6497 17.2045 11.9148 19.323 9.09141C20.6133 7.37191 21.1292 6.32183 20.9677 5.87293C20.8141 5.44502 19.8651 5.5579 19.8651 5.5579L16.7097 5.57628C16.7097 5.57628 16.476 5.54478 16.3014 5.64847C16.1321 5.75085 16.0232 5.98712 16.0232 5.98712C16.0232 5.98712 15.5231 7.3181 14.8563 8.44955C13.4505 10.8372 12.8874 10.9632 12.6577 10.8149C12.1234 10.4696 12.2573 9.42613 12.2573 8.68582C12.2573 6.37171 12.6078 5.40695 11.5735 5.15756C11.2296 5.07487 10.9775 5.01974 10.0994 5.01055C8.97321 4.99874 8.01895 5.01449 7.47947 5.27832C7.11982 5.45421 6.84286 5.84667 7.01219 5.86899C7.22089 5.89655 7.69343 5.99631 7.94413 6.33759C8.26834 6.77731 8.25653 7.767 8.25653 7.767C8.25653 7.767 8.44292 10.4906 7.82206 10.8293C7.39547 11.0616 6.81136 10.5878 5.55783 8.42068C4.91597 7.31153 4.43031 6.08425 4.43031 6.08425C4.43031 6.08425 4.33711 5.85586 4.17041 5.73379C3.96827 5.58547 3.68475 5.53821 3.68475 5.53821L0.684156 5.55659C0.684156 5.55659 0.233935 5.56972 0.0685481 5.76529C-0.0784628 5.93987 0.0567347 6.29952 0.0567347 6.29952C0.0567347 6.29952 2.40628 11.7954 5.06561 14.5663C7.50572 17.1061 10.2753 16.9394 10.2753 16.9394Z" fill="white"/>
</g>
<defs>
<clipPath id="clip0_1334_24686">
<rect width="21" height="21" fill="white" transform="translate(0 0.5)"/>
</clipPath>
</defs>
</svg>
