<svg width="94" height="67" viewBox="0 0 94 67" fill="none" xmlns="http://www.w3.org/2000/svg">
<path d="M18.177 37.0904H19.8019C20.4315 37.0904 20.9138 36.9243 21.2485 36.5958C21.5833 36.264 21.7522 35.8186 21.7522 35.2627C21.7522 34.7405 21.568 34.3136 21.2024 33.9879C20.834 33.6594 20.4036 33.4966 19.9092 33.4966H18.177V37.0904ZM44.0614 10.2827C43.9995 10.3451 40.0445 12.4516 39.5241 15.7141C39.0869 18.4562 44.1729 22.2386 47.0059 25.5933C47.644 26.3489 48.1597 27.0827 48.4761 27.7781C48.3613 28.0007 48.2505 28.2483 48.1444 28.5208L46.3596 34.1415H46.3228L44.6643 29.0028C44.3664 28.1429 44.0683 27.4949 43.7734 27.0587C43.4788 26.6195 43.0058 26.4012 42.3575 26.4012C41.6694 26.4012 41.1781 26.5917 40.8832 26.9727C40.7143 27.1569 40.5914 27.3626 40.5085 27.5992C40.4288 27.8327 40.3457 28.1767 40.2566 28.6314L38.7823 37.1271C38.7577 37.2806 38.7331 37.4465 38.7118 37.6216C38.6901 37.7935 38.6686 37.9625 38.6503 38.1253C38.6317 38.2882 38.6225 38.3773 38.6194 38.3956C38.6563 38.7949 38.8069 39.1205 39.0772 39.3785C39.3444 39.6335 39.6822 39.7625 40.0908 39.7625C41.0275 39.7625 41.5927 39.099 41.7861 37.7689L42.634 31.9485H42.674L44.735 38.4724C44.864 38.9178 45.0542 39.2465 45.3032 39.4523C45.5518 39.6581 45.9205 39.7625 46.4118 39.7625C46.8758 39.7409 47.2197 39.6212 47.447 39.3969C47.6714 39.1758 47.8433 38.8686 47.96 38.4724L49.9901 31.9485H50.0273L51.004 38.2144C51.0562 38.6752 51.2158 39.0468 51.477 39.3323C51.741 39.6182 52.0911 39.7625 52.5335 39.7625C52.9697 39.7625 53.3353 39.6242 53.6269 39.3509C53.9187 39.0774 54.063 38.7336 54.063 38.3218C54.063 38.1961 54.0477 38.0026 54.0138 37.7414C53.9802 37.4773 53.9586 37.3083 53.9495 37.2347L52.3676 28.2043C51.8911 25.4565 47.3864 21.7911 45.4876 19.7501H50.026C50.1465 19.9177 50.3432 20.0269 50.565 20.0269C50.9306 20.0269 51.2259 19.7307 51.2246 19.3648C51.2233 18.9988 50.9261 18.7022 50.5605 18.7022C50.3387 18.7022 50.1431 18.8114 50.0233 18.979H44.803C44.2302 18.2998 43.7242 17.5997 43.3332 16.883H49.2259C49.3465 17.0504 49.5432 17.1597 49.7649 17.1597C50.1304 17.1597 50.4256 16.8629 50.4244 16.4971C50.4232 16.1315 50.1259 15.8349 49.7604 15.8349C49.5386 15.8349 49.3428 15.944 49.2233 16.1118H42.9615C42.6759 15.4255 42.5083 14.7254 42.4986 14.0152H46.3314C46.452 14.1829 46.6487 14.2922 46.8705 14.2922C47.2359 14.2922 47.5312 13.9954 47.5299 13.63C47.5288 13.2639 47.2313 12.9674 46.866 12.9674C46.6442 12.9674 46.4484 13.0765 46.3288 13.2441H42.5515C42.701 12.2702 43.1699 11.2801 44.0614 10.2827ZM63.36 39.6772V38.3483C63.3537 38.286 63.3505 38.222 63.3505 38.1561C63.3505 38.0582 63.3581 37.964 63.3732 37.8738C63.4609 37.2441 63.9898 36.7507 64.635 36.7179C64.7761 36.6958 64.9284 36.6849 65.0921 36.6849H65.5652L69.0729 27.7682C69.2909 27.2736 69.515 26.9235 69.7424 26.7177C69.9697 26.5059 70.2892 26.4012 70.6978 26.4012C71.0877 26.4012 71.3949 26.5089 71.619 26.7207C71.8464 26.9297 72.0522 27.2675 72.2456 27.7282L75.8454 36.6849H76.2693C76.42 36.6849 76.5635 36.6952 76.6996 36.7161H76.702C77.3944 36.7161 77.9691 37.2474 78.038 37.9225C78.0473 37.9864 78.0536 38.053 78.057 38.1223C78.057 38.2027 78.0529 38.2798 78.0452 38.3538V39.6772C78.0452 40.4152 77.4399 41.0205 76.702 41.0205H76.474C75.7361 41.0205 75.1309 40.4161 75.1309 39.6772V39.6704H66.2744V39.6772C66.2744 40.4152 65.6691 41.0205 64.9311 41.0205H64.7032C63.9652 41.0205 63.36 40.4161 63.36 39.6772ZM16.7947 26.5119H22.3911C22.7381 26.5119 23.027 26.6471 23.2604 26.9174C23.4968 27.1907 23.6167 27.5317 23.6167 27.9464C23.6167 28.3732 23.5 28.7203 23.2634 28.9875C23.03 29.2548 22.7409 29.3868 22.3911 29.3868H18.177V30.8428H20.628C21.4912 30.8428 22.2375 31.0332 22.8734 31.4142C23.5091 31.7918 23.9974 32.3141 24.3322 32.9806C24.6702 33.6471 24.8484 34.3965 24.8667 35.2319C24.8667 36.0673 24.6886 36.8293 24.3354 37.5173C23.9824 38.2051 23.4507 38.7489 22.7412 39.1542C22.0317 39.5598 21.1746 39.7625 20.1672 39.7625H16.7395C16.233 39.7625 15.8489 39.6119 15.5876 39.3078C15.3236 39.0008 15.1914 38.6628 15.1914 38.2912V28.1337C15.1914 27.3657 15.4494 26.8743 15.9656 26.6502C15.9716 26.6471 15.9778 26.6439 15.9839 26.6409C15.9932 26.6379 15.9992 26.6349 16.0055 26.6349C16.0148 26.6316 16.0241 26.6284 16.03 26.6256C16.0359 26.6226 16.0424 26.6194 16.0484 26.6163C16.1925 26.5458 16.3556 26.5119 16.5277 26.5119C16.5644 26.5119 16.5982 26.5089 16.6289 26.5059C16.6441 26.5059 16.6567 26.5089 16.672 26.5119C16.678 26.5119 16.6843 26.5119 16.6904 26.5119C16.6996 26.5119 16.7088 26.5119 16.718 26.5119C16.7272 26.5119 16.7365 26.5119 16.7488 26.5119C16.7641 26.5119 16.7794 26.5119 16.7947 26.5119ZM25.8848 38.328V28.1368C25.8848 27.587 26.0048 27.1629 26.2474 26.8713C26.4899 26.5796 26.8218 26.4229 27.2487 26.4012C27.7464 26.4012 28.1423 26.5335 28.4342 26.8007C28.7261 27.0647 28.8704 27.4366 28.8704 27.9125V34.2522L34.4175 27.3413C34.6449 27.0432 34.869 26.8128 35.0934 26.6502C35.3174 26.4843 35.597 26.4012 35.9287 26.4012C36.3895 26.4012 36.7582 26.5581 37.0315 26.8682C37.3049 27.1815 37.44 27.578 37.44 28.06V38.2144C37.44 38.6719 37.308 39.0437 37.0468 39.3294C36.7828 39.6182 36.3988 39.7625 35.8919 39.7625C35.4221 39.7625 35.0658 39.6089 34.8201 39.3048C34.5774 38.9976 34.4545 38.6352 34.4545 38.2144V31.9485H34.4175L28.8704 38.8563C28.5817 39.1512 28.3298 39.3693 28.1148 39.5138C27.8967 39.655 27.6327 39.7256 27.3225 39.7256C26.8831 39.7256 26.533 39.5781 26.2751 39.2865C26.0138 38.9946 25.8848 38.6752 25.8848 38.328ZM55.0551 31.7981V28.0201C55.0551 27.5195 55.2026 27.1415 55.5004 26.8899C55.7983 26.6379 56.1271 26.5119 56.4895 26.5119H61.2135C61.6374 26.5119 61.9782 26.6349 62.2331 26.8806C62.4851 27.1262 62.6111 27.4703 62.6111 27.9125C62.6111 28.2997 62.5004 28.6219 62.2763 28.8831C62.049 29.1443 61.6954 29.2764 61.2135 29.2764H58.0406V31.6536H60.9922C61.4409 31.6536 61.788 31.7889 62.0366 32.0561C62.2856 32.3232 62.4113 32.6519 62.4113 33.0389C62.4113 33.4167 62.2823 33.7423 62.0244 34.0218C61.7696 34.2981 61.4252 34.4363 60.9922 34.4363H58.0406V36.8876H61.2135C61.7325 36.8876 62.1134 37.0166 62.3591 37.2716C62.6018 37.5295 62.7247 37.8427 62.7247 38.2144C62.7247 38.6413 62.6018 38.9886 62.3561 39.2526C62.1105 39.5198 61.7293 39.6518 61.2135 39.6518H56.6031C56.1057 39.6518 55.7215 39.5076 55.4543 39.2187C55.187 38.9331 55.0551 38.583 55.0551 38.1745V31.7981ZM72.605 36.6849L70.6978 31.6568L68.7963 36.6849H72.605Z" fill="white"/>
<path d="M31.0617 52.7299C30.2051 52.6917 29.7781 52.2419 29.7781 51.3879V49.146H27.7523C27.0381 49.146 26.4179 48.9884 25.8918 48.6759C25.3656 48.3607 24.9615 47.9285 24.6819 47.3771C24.4049 46.8255 24.2574 46.2053 24.2422 45.5139C24.2422 44.8226 24.3896 44.1923 24.6819 43.6229C24.9742 43.0536 25.414 42.6037 26.0011 42.2681C26.5882 41.9326 27.2999 41.7649 28.131 41.7649H30.9676C30.9981 41.7649 31.0285 41.7649 31.0591 41.7649H33.8957C34.7268 41.7649 35.4385 41.9326 36.0256 42.2681C36.6128 42.6037 37.0525 43.0536 37.3447 43.6229C37.637 44.1923 37.7845 44.8226 37.7845 45.5139C37.7692 46.2053 37.6218 46.8255 37.3422 47.3771C37.0626 47.9285 36.6611 48.3607 36.1349 48.6759C35.6088 48.9884 34.9886 49.146 34.2744 49.146H32.2487V51.3879C32.2487 52.2419 31.8521 52.6917 31.0617 52.7299ZM32.2487 43.9762V46.95H33.6796C34.0889 46.95 34.4472 46.8153 34.7496 46.5433C35.0547 46.2739 35.2072 45.9206 35.2072 45.4885C35.2072 45.0285 35.0674 44.6624 34.7903 44.3879C34.5107 44.1135 34.1117 43.9762 33.5906 43.9762H32.2487ZM29.7831 46.95L29.7781 43.9762H28.4361C27.915 43.9762 27.516 44.1135 27.2364 44.3879C26.9593 44.6624 26.8195 45.0285 26.8195 45.4885C26.8195 45.9206 26.972 46.2739 27.2745 46.5433C27.5795 46.8153 27.9378 46.95 28.3471 46.95H29.7781H29.7831ZM38.148 50.4728L40.7558 43.4399C41.1573 42.2122 41.7876 41.5972 42.6468 41.5972C43.4957 41.5972 44.1311 42.1614 44.5531 43.2873L47.2804 50.5796C47.4252 51.0473 47.4964 51.4184 47.4964 51.6929C47.4964 52.031 47.3845 52.2978 47.1609 52.4961C46.9372 52.6917 46.6525 52.7909 46.3044 52.7909C45.6841 52.7909 45.2572 52.4046 45.0258 51.6318L44.7183 50.5796H40.6795L40.344 51.6318C40.2296 52.003 40.0695 52.2826 39.8661 52.4732C39.6628 52.6638 39.3832 52.7604 39.0324 52.7604C38.2597 52.7604 37.8735 52.4147 37.8735 51.7208C37.8735 51.3929 37.9649 50.9786 38.148 50.4728ZM41.3809 48.292H43.971L42.7231 44.327H42.69L41.3809 48.292ZM48.0937 43.1044C48.0937 42.7968 48.203 42.5173 48.419 42.2656C48.6376 42.014 48.9553 41.8869 49.3747 41.8869H52.2112C53.045 41.8869 53.754 42.0546 54.3412 42.3902C54.9284 42.7257 55.3681 43.1756 55.6603 43.7449C55.9527 44.3143 56.1001 44.9446 56.1001 45.6359C56.0848 46.3273 55.9374 46.9475 55.6578 47.499C55.3808 48.0505 54.9766 48.4827 54.4505 48.7979C53.9243 49.1104 53.3067 49.268 52.5925 49.268H50.5642V51.5378C50.5642 51.9699 50.4448 52.2978 50.2033 52.5189C49.9619 52.74 49.6542 52.8519 49.2832 52.8519C48.4901 52.8113 48.0937 52.3639 48.0937 51.5074V43.1044ZM50.5642 44.0982V47.072H51.9978C52.407 47.072 52.7628 46.9373 53.0678 46.6653C53.3703 46.396 53.5228 46.0426 53.5228 45.6105C53.5228 45.1504 53.383 44.7844 53.1059 44.5099C52.8288 44.2355 52.4298 44.0982 51.9087 44.0982H50.5642ZM57.5896 43.6407C57.6633 43.2645 57.7318 42.9798 57.798 42.7866C57.8666 42.5909 57.9683 42.4207 58.108 42.2681C58.3521 41.953 58.7588 41.7955 59.3281 41.7955C59.8644 41.7955 60.2558 41.9759 60.4998 42.3393C60.7439 42.7002 60.9903 43.2366 61.2369 43.9482L62.6094 48.2005H62.6399L64.1167 43.5491C64.3327 42.9951 64.5716 42.5655 64.8284 42.2579C65.0877 41.9504 65.4562 41.7955 65.934 41.7955C66.3737 41.7955 66.7448 41.9326 67.0473 42.2097C67.3472 42.4868 67.5352 42.8477 67.6115 43.2873L68.9205 50.7601C68.9281 50.821 68.9459 50.9608 68.9739 51.1794C69.0019 51.3955 69.0145 51.5556 69.0145 51.6598C69.0145 52.0005 68.8952 52.2851 68.6537 52.5113C68.4122 52.7375 68.1097 52.8519 67.7488 52.8519C67.3829 52.8519 67.093 52.7324 66.8745 52.4961C66.6584 52.2596 66.5263 51.9521 66.483 51.5709L65.6748 46.3857H65.6442L63.9642 51.7843C63.8675 52.1123 63.7253 52.3664 63.5398 52.5495C63.3517 52.735 63.067 52.8341 62.6832 52.8519C62.2765 52.8519 61.9715 52.7655 61.7656 52.5952C61.5598 52.4248 61.4022 52.1529 61.2953 51.7843L59.5899 46.3857H59.5569L58.8553 51.2023C58.6952 52.3029 58.2275 52.8519 57.4523 52.8519C57.1142 52.8519 56.8347 52.7452 56.6135 52.5341C56.3899 52.3207 56.2653 52.0512 56.2348 51.7208C56.2373 51.7056 56.2449 51.6318 56.2602 51.4971C56.2754 51.3625 56.2932 51.2227 56.311 51.0803C56.3288 50.9355 56.3492 50.7982 56.3695 50.6711L57.5896 43.6407Z" fill="white"/>
<path fill-rule="evenodd" clip-rule="evenodd" d="M47.5051 0C47.4432 0.062407 43.4882 2.169 42.9679 5.43136C42.5591 7.99405 46.976 11.4665 49.8681 14.6485L44.724 14.6484C44.6035 14.481 44.4069 14.3719 44.1852 14.3718C43.8197 14.3718 43.5244 14.6684 43.5256 15.0342C43.5268 15.4 43.8242 15.6966 44.1897 15.6965C44.4114 15.6965 44.6073 15.5873 44.7269 15.4197H50.5411C51.1491 16.1513 51.6383 16.8619 51.938 17.5356H46.7691C46.6484 17.368 46.4519 17.2589 46.2302 17.2589C45.8646 17.259 45.5693 17.5555 45.5706 17.9213C45.5718 18.287 45.8692 18.5836 46.2347 18.5837C46.4564 18.5837 46.6524 18.4744 46.7718 18.3068H52.1981C52.3964 19.2098 52.1666 20.029 51.3122 20.7214C51.7464 20.535 58.0624 17.5723 52.6229 12.9648C48.7727 9.49105 43.1882 4.82926 47.5051 0Z" fill="white"/>
<path fill-rule="evenodd" clip-rule="evenodd" d="M50.8187 8.68286C65.6714 8.7273 93.2522 18.6349 93.2522 36.9719C93.2522 43.822 89.4808 50.1211 83.167 55.0995C79.3502 58.1092 74.6039 60.6368 69.1999 62.5115C62.5117 64.832 54.8152 66.1534 46.6261 66.1534C34.1156 66.1534 22.7561 63.0695 14.382 58.0505C5.51914 52.7387 0 45.2585 0 36.9719C0 33.3248 0.901195 30.0762 2.55409 27.2367C4.18544 24.4338 6.54932 22.0288 9.50144 20.0318C17.5933 14.5575 29.5594 12.738 37.9737 14.5747C23.4381 16.3998 11.878 22.7257 8.04198 30.8499C7.07506 32.7971 6.55733 34.8503 6.55733 36.9719C6.55733 49.4669 24.4968 59.5962 46.6261 59.5962C58.6055 59.5962 69.3574 56.6278 76.6998 51.9226C82.9209 47.9362 86.6948 42.7029 86.6948 36.9719C86.6948 35.5865 86.4495 34.2273 86.0011 32.9019C82.4969 21.2393 61.6776 10.3028 50.8187 8.68286Z" fill="white"/>
<path fill-rule="evenodd" clip-rule="evenodd" d="M50.8203 8.68286C65.6731 8.7273 93.2538 18.6349 93.2538 36.9719C93.2538 43.822 89.4825 50.1211 83.1687 55.0995L83.006 55.227L82.989 55.2402L82.8423 55.3541L82.8083 55.3804L82.6773 55.4802L82.6257 55.5195L82.598 55.5406L82.4652 55.6407L82.4422 55.6582L82.3443 55.7313L82.2572 55.796L82.1762 55.8558L82.1454 55.8782L82.0158 55.9733L82.0069 55.9798L81.8833 56.0695L81.8365 56.1032L81.8192 56.1157L81.665 56.2259L81.5041 56.3402L81.4927 56.3482L81.319 56.4696L81.1443 56.5906L81.1197 56.6077L80.9687 56.711L80.9254 56.7406L80.7918 56.8307L80.7299 56.8724L80.6141 56.9498L80.5936 56.9634L80.486 57.0348L80.3503 57.1241L80.3352 57.134L80.2554 57.1862L80.1361 57.2637L80.0744 57.3033L80.0639 57.3101L79.895 57.4183L79.8924 57.4201L79.7336 57.5208L79.7095 57.5358L79.5307 57.6481L79.5252 57.6513L79.3402 57.7661L79.3264 57.7747L79.1543 57.8799L79.1208 57.9004L78.9672 57.9934L78.8188 58.0823L78.7791 58.1062L78.7063 58.1495L78.59 58.2181L78.497 58.2729L78.3999 58.3297L78.3646 58.3501C78.1219 58.4912 77.8768 58.6307 77.6297 58.7688L77.4347 58.8769L77.4329 58.878L77.2386 58.9843L77.0417 59.0911L76.999 59.1142L76.8438 59.1972L76.7802 59.2311L76.645 59.3025L76.466 59.3963L76.431 59.4146C76.1685 59.5512 75.9037 59.6862 75.6366 59.8193L75.4437 59.9148L75.4321 59.9204C75.2956 59.9878 75.1582 60.0544 75.0203 60.1208L74.9893 60.1359L74.813 60.22C74.3976 60.4176 73.9765 60.6109 73.5505 60.7999L73.3635 60.8825L73.3372 60.8939C73.1269 60.986 72.9148 61.0773 72.702 61.1675L72.6913 61.172L72.6507 61.1893L72.4744 61.2632L72.411 61.2897L72.2565 61.3536L72.17 61.3892L72.1295 61.4058L71.9578 61.4757L71.9282 61.4877L71.8182 61.5322L71.6853 61.5855L71.5978 61.6204L71.5417 61.6426C71.3393 61.7228 71.1359 61.802 70.9314 61.8803L70.7078 61.9655C77.5364 55.9425 86.4978 47.2648 86.6917 37.3005C86.6945 37.1911 86.6965 37.0818 86.6965 36.9719C86.6965 35.5865 86.4512 34.2273 86.0028 32.9019C85.6734 31.8061 85.2062 30.7369 84.6117 29.7006C78.742 19.3017 60.6776 10.1533 50.8203 8.68286Z" fill="white"/>
<path fill-rule="evenodd" clip-rule="evenodd" d="M16.7892 59.3971C15.9621 58.9654 15.1591 58.5166 14.382 58.0508C5.51914 52.739 0 45.2589 0 36.9723C0 33.3252 0.901195 30.0765 2.55409 27.2371C4.18544 24.4342 6.54932 22.0291 9.50144 20.0322C17.5933 14.5579 29.5594 12.7384 37.9737 14.5751C23.4381 16.4001 11.878 22.7261 8.04198 30.8503C7.07506 32.7974 6.55733 34.8506 6.55733 36.9723C6.55733 45.0956 11.5103 53.5686 16.7892 59.3971Z" fill="white"/>
</svg>
