<svg width="106" height="39" viewBox="0 0 106 39" fill="none" xmlns="http://www.w3.org/2000/svg">
<path d="M4.96974 10.7783C4.81988 11.046 4.69131 11.2584 4.57891 11.4788C4.34177 11.944 4.24725 12.4432 4.27876 12.9612C4.30984 13.471 4.45459 13.6085 4.95186 13.6391C5.12131 13.6498 5.29203 13.6459 5.46233 13.6459C7.24876 13.6464 9.03519 13.6438 10.822 13.6481C11.3074 13.6493 11.7719 13.6183 12.2257 13.3919C12.6281 13.1914 12.9921 13.2991 13.2271 13.583C13.4681 13.8736 13.4804 14.3056 13.2565 14.6078C13.0436 14.895 12.663 15.067 12.356 14.8882C11.7476 14.5337 11.1009 14.5933 10.4534 14.592C8.92194 14.589 7.39053 14.5873 5.85955 14.5942C5.55302 14.5954 5.23371 14.5307 4.89822 14.7303C4.92632 14.8708 4.9161 15.0521 4.99572 15.1759C5.42274 15.8437 5.87275 16.4965 6.3134 17.1553C6.54032 17.4954 6.86006 17.6078 7.26111 17.6035C8.3953 17.5903 9.52948 17.5992 10.6641 17.5992C11.685 17.5992 12.706 17.5971 13.7269 17.6005C14.182 17.6022 14.6303 17.6141 15.0399 17.3469C15.2647 17.2 15.5236 17.2103 15.7701 17.343C16.163 17.555 16.3414 17.9733 16.1898 18.3406C16.0123 18.7696 15.5542 19.0403 15.16 18.8271C14.5422 18.4934 13.9015 18.5457 13.2543 18.5445C11.7229 18.5411 10.1919 18.5419 8.66053 18.5453C8.40892 18.5457 8.1573 18.5704 7.8431 18.587C7.87631 18.7598 7.86482 18.9084 7.93123 19.002C8.06151 19.185 8.23223 19.3399 8.39104 19.5016C9.94203 21.078 11.5126 22.6357 13.0381 24.2359C13.858 25.096 14.6355 26.0029 15.3665 26.9396C15.8339 27.5385 16.2154 28.213 16.5743 28.8859C17.1205 29.9107 17.161 30.9904 16.8182 32.1008C16.4598 33.2626 15.8182 34.2551 15.0484 35.1744C14.0564 36.3588 12.8699 37.3193 11.5705 38.1454C11.5352 38.168 11.4777 38.1548 11.3781 38.1624C11.5207 37.9513 11.6433 37.7696 11.7659 37.5883C13.1117 35.6 13.4442 33.4801 12.6204 31.1985C12.2223 30.0954 11.6544 29.0876 10.983 28.1338C9.8837 26.5728 8.56559 25.2049 7.1832 23.8997C5.9877 22.771 4.75134 21.6857 3.55073 20.5626C3.05517 20.0991 2.58301 19.6055 2.14152 19.0901C1.6187 18.4806 1.2747 17.7665 1.04437 16.9949C0.763377 16.0544 0.846823 15.1487 1.2449 14.2601C1.56293 13.5502 2.03551 12.9539 2.58089 12.4092C3.20716 11.7831 3.92752 11.2822 4.68662 10.8345C4.74793 10.7983 4.83436 10.8034 4.96974 10.7783Z" fill="#113F92"/>
<path d="M15.674 0.100013C15.5553 0.283442 15.4352 0.466446 15.3177 0.651152C14.023 2.68589 13.8348 4.82959 14.6974 7.07117C15.2743 8.56966 16.1594 9.88133 17.179 11.1092C18.5593 12.7711 20.1188 14.2555 21.7205 15.6983C22.5417 16.438 23.3681 17.1721 24.177 17.9258C24.9093 18.608 25.5041 19.3979 25.9213 20.3134C26.1584 20.8339 26.2926 21.3731 26.3194 21.9519C26.3624 22.8695 26.1023 23.6857 25.6075 24.4403C24.8276 25.6294 23.7683 26.5006 22.5243 27.1645C22.3621 26.9947 22.5141 26.8947 22.5771 26.7934C22.9181 26.2427 23.0445 25.6452 22.9926 25.0042C22.9539 24.528 22.7946 24.368 22.2999 24.3288C22.159 24.3177 22.0168 24.322 21.875 24.322C20.0039 24.3216 18.1331 24.3241 16.262 24.3199C15.8614 24.319 15.4718 24.3331 15.115 24.5561C15.0005 24.6276 14.8519 24.6646 14.7148 24.6778C14.261 24.7216 13.9004 24.3765 13.8923 23.9079C13.8842 23.4368 14.2363 23.1065 14.7131 23.1533C14.8511 23.167 15.0014 23.1976 15.1163 23.2687C15.4744 23.49 15.8643 23.5044 16.265 23.5036C18.0224 23.5006 19.7804 23.507 21.5378 23.5006C22.5477 23.4972 22.6307 23.3559 22.1049 22.4975C21.8095 22.0149 21.4586 21.5667 21.1525 21.0905C20.8319 20.5921 20.4117 20.3866 19.8025 20.4015C18.3009 20.4381 16.798 20.4134 15.2951 20.4134C14.8132 20.4134 14.3312 20.4104 13.8493 20.4142C13.2575 20.4185 12.6734 20.3793 12.1097 20.6828C11.7363 20.8841 11.2752 20.6385 11.1249 20.2695C10.9542 19.8495 11.1488 19.3915 11.5728 19.2154C11.7674 19.1345 11.9705 19.1239 12.1463 19.2354C12.6065 19.5282 13.1157 19.5043 13.6266 19.5035C15.2994 19.5001 16.9717 19.5052 18.6445 19.4996C18.9165 19.4988 19.2077 19.5656 19.4295 19.3958C19.53 19.16 19.4014 19.0358 19.2856 18.9157C18.7543 18.365 18.2187 17.8181 17.6857 17.2696C16.2241 15.7655 14.7544 14.2696 13.3048 12.7545C12.5001 11.9135 11.7819 10.9989 11.1769 10.0013C10.838 9.44255 10.5532 8.85907 10.3795 8.22366C10.2109 7.60741 10.2011 6.99626 10.356 6.3766C10.5434 5.62842 10.8329 4.92279 11.228 4.2627C12.2996 2.47055 13.8357 1.15377 15.5301 0C15.5782 0.033196 15.6264 0.0668175 15.674 0.100013Z" fill="#00BA00"/>
<path d="M74.6687 14.0577C74.5622 14.2914 74.4571 14.4841 74.3839 14.6884C73.646 16.741 72.9138 18.7954 72.1789 20.8488C71.7825 21.9558 71.6442 22.0494 70.4436 22.0413C70.387 22.0409 70.3303 22.0418 70.2737 22.0405C69.4516 22.0192 69.2268 21.8796 68.9479 21.1093C68.205 19.0588 67.4804 17.0015 66.743 14.9489C66.6408 14.6642 66.6012 14.3441 66.3777 14.1301C66.0856 14.165 66.1376 14.3607 66.138 14.5195C66.1418 16.5878 66.1487 18.6566 66.1538 20.725C66.1542 20.9233 66.1636 21.1233 66.1423 21.3195C66.0933 21.7647 65.8809 21.9932 65.4377 22.0209C64.9859 22.049 64.53 22.0494 64.0787 22.0209C63.6355 21.9928 63.4175 21.7592 63.3724 21.3212C63.3519 21.1246 63.3617 20.925 63.3617 20.7267C63.3613 17.8931 63.3613 15.0595 63.3617 12.2255C63.3617 12.0557 63.3549 11.8846 63.3677 11.7157C63.4056 11.2203 63.6167 10.9935 64.0914 10.9318C64.2034 10.9173 64.3175 10.9169 64.4308 10.9164C65.2529 10.9152 66.075 10.9062 66.8971 10.9186C67.6945 10.9309 67.9453 11.1028 68.2127 11.8629C68.8807 13.7598 69.5308 15.6626 70.1932 17.5616C70.2622 17.7591 70.2358 18.0757 70.5504 18.0506C70.785 18.0319 70.7825 17.765 70.8455 17.582C71.4798 15.7333 72.1151 13.8849 72.7511 12.0366C72.7971 11.9025 72.8469 11.7697 72.9001 11.6387C73.0913 11.1688 73.44 10.9224 73.9492 10.9207C74.9131 10.9181 75.8769 10.9045 76.8404 10.9279C77.3926 10.9415 77.6033 11.1726 77.6514 11.708C77.6642 11.8489 77.6595 11.991 77.6595 12.1328C77.66 15.0229 77.66 17.9135 77.6587 20.8037C77.6587 21.0016 77.6625 21.2021 77.6344 21.397C77.5821 21.7613 77.3871 21.9869 77.0354 22.0081C76.5279 22.0392 76.0157 22.0388 75.5082 22.0064C75.1506 21.9839 74.9646 21.7613 74.9241 21.3889C74.8999 21.1646 74.9084 20.9361 74.9084 20.7097C74.9101 18.6979 74.9135 16.6857 74.9148 14.674C74.9148 14.5331 74.9194 14.3884 74.8888 14.2531C74.873 14.1926 74.7768 14.1505 74.6687 14.0577Z" fill="#113F92"/>
<path d="M52.5884 19.1609C52.7038 19.0171 52.8413 18.8851 52.9315 18.7268C54.1824 16.5359 55.4264 14.3415 56.6726 12.1481C56.7705 11.9757 56.8697 11.8038 56.9748 11.6356C57.2673 11.1688 57.6799 10.913 58.2427 10.9168C58.8664 10.9211 59.491 10.9011 60.1139 10.9253C60.7308 10.9496 60.916 11.1509 60.956 11.7565C60.9654 11.8978 60.9602 12.04 60.9607 12.1817C60.9611 15.0446 60.9615 17.908 60.9598 20.7709C60.9598 20.9973 60.9628 21.2259 60.9334 21.4497C60.8896 21.7834 60.7193 21.9826 60.3872 22.0043C59.8797 22.037 59.3671 22.0396 58.86 22.0073C58.5033 21.9847 58.304 21.754 58.2631 21.3961C58.2376 21.1718 58.2457 20.9433 58.2453 20.7169C58.2448 18.846 58.2474 16.9751 58.2448 15.1042C58.2444 14.8867 58.2167 14.6697 58.2027 14.4709C57.8787 14.3726 57.8076 14.5875 57.7152 14.7522C57.1192 15.8154 56.5295 16.8819 55.9335 17.945C55.3655 18.9588 54.7937 19.9704 54.2207 20.9816C54.1232 21.1539 54.0257 21.3289 53.9048 21.4846C53.6502 21.8123 53.3215 22.0264 52.8928 22.0302C52.0707 22.0375 51.2477 22.0524 50.426 22.0281C49.867 22.0115 49.6937 21.8043 49.6503 21.2284C49.6418 21.1156 49.6452 21.0016 49.6452 20.8884C49.6452 17.9684 49.6448 15.0489 49.6465 12.1289C49.6465 11.931 49.6503 11.7314 49.6737 11.5356C49.7116 11.2181 49.9032 10.9836 50.2123 10.9636C50.7466 10.9287 51.2873 10.9309 51.8212 10.9734C52.1277 10.9977 52.3185 11.2394 52.3559 11.5527C52.3827 11.7765 52.3751 12.0051 52.3751 12.2319C52.3759 14.3011 52.3738 16.3708 52.3759 18.44C52.3764 18.6604 52.3998 18.8805 52.4126 19.1009C52.4713 19.1201 52.5296 19.1405 52.5884 19.1609Z" fill="#113F92"/>
<path d="M39.7644 13.1729C39.6094 13.6665 39.6711 14.1496 39.6916 14.6271C39.7031 14.8939 39.8482 15.0174 40.1369 15.0425C40.3621 15.0621 40.5899 15.0574 40.8168 15.0578C41.8944 15.0599 42.9715 15.0557 44.0491 15.0629C44.8286 15.068 45.5643 15.2608 46.251 15.6298C47.1353 16.1047 47.6492 16.8406 47.8093 17.8335C48.1639 20.0346 47.0238 21.6174 44.8103 21.9634C44.448 22.02 44.0759 22.0366 43.7085 22.0379C41.8088 22.0451 39.9091 22.0464 38.0094 22.0396C37.0068 22.0362 36.8868 21.9123 36.8855 20.9084C36.8821 17.9607 36.8816 15.0131 36.8859 12.0651C36.8872 11.0888 37.0468 10.9219 38.0201 10.9189C40.6572 10.9113 43.2938 10.9113 45.9309 10.9181C46.9177 10.9206 47.134 11.1611 47.0897 12.137C47.0629 12.7268 46.8513 12.9558 46.2689 13.0009C46.0433 13.0184 45.8155 13.0094 45.5886 13.0094C43.9724 13.0099 42.3563 13.0069 40.7402 13.012C40.4341 13.0133 40.1152 12.9571 39.7644 13.1729ZM41.9727 19.9725C41.9727 19.9721 41.9727 19.9712 41.9727 19.9708C42.5683 19.9708 43.1639 19.9848 43.7587 19.9665C44.3164 19.9495 44.7541 19.6967 44.9444 19.1571C45.1428 18.594 45.1079 18.0352 44.7051 17.553C44.5174 17.3283 44.2615 17.1972 43.9707 17.1606C43.7464 17.1325 43.5186 17.1262 43.2921 17.1249C42.6118 17.1206 41.931 17.1219 41.2506 17.1236C40.9105 17.1245 40.5695 17.1168 40.2301 17.1377C39.8014 17.164 39.6916 17.2764 39.6784 17.7233C39.663 18.2612 39.6635 18.8004 39.6788 19.3388C39.6933 19.8491 39.7908 19.9546 40.271 19.9691C40.8381 19.9853 41.4056 19.9725 41.9727 19.9725Z" fill="#113F92"/>
<path d="M103.907 19.0877C104.185 19.1422 104.351 19.1669 104.513 19.2082C104.884 19.3031 105.104 19.538 105.111 19.9295C105.121 20.439 105.129 20.9493 105.11 21.4583C105.095 21.8609 104.876 22.08 104.484 22.1311C104.344 22.1494 104.201 22.1469 104.06 22.143C103.51 22.1277 103.404 22.0473 103.202 21.5157C103.172 21.4374 103.139 21.3608 103.103 21.285C103.091 21.2608 103.067 21.2425 103.028 21.1969C102.944 21.1791 102.835 21.1352 102.725 21.1348C99.9209 21.1306 97.117 21.1306 94.3126 21.134C94.204 21.134 94.0955 21.1761 94.0124 21.1931C93.9575 21.265 93.9098 21.3042 93.892 21.3544C93.797 21.6166 93.7727 21.9264 93.4696 22.0532C93.1167 22.2005 92.7463 22.1754 92.3852 22.0915C92.1447 22.0358 91.974 21.8566 91.9663 21.6119C91.9476 20.9901 91.9493 20.3671 91.9684 19.7453C91.9757 19.5018 92.1434 19.3316 92.3737 19.2478C92.4785 19.2094 92.5939 19.1835 92.7046 19.1822C93.0899 19.1784 93.2414 18.952 93.3227 18.6098C93.5978 17.453 93.886 16.2997 94.1721 15.1459C94.3151 14.5688 94.4578 13.9917 94.6102 13.4172C94.8997 12.326 95.5851 11.5735 96.6316 11.1752C97.0774 11.0054 97.5542 10.8419 98.023 10.8232C99.6919 10.7568 101.363 10.753 103.033 10.7296C103.145 10.7279 103.259 10.7504 103.368 10.7777C103.643 10.8466 103.816 11.0241 103.843 11.308C103.867 11.5608 103.867 11.8165 103.867 12.0715C103.868 14.0534 103.866 16.0358 103.869 18.0178C103.87 18.3532 103.892 18.689 103.907 19.0877ZM95.9849 19.0201C96.1458 19.0911 96.2216 19.1533 96.2978 19.1537C97.7675 19.1648 99.2368 19.1707 100.706 19.1699C100.841 19.1699 100.976 19.1175 101.084 19.0954C101.322 18.7919 101.254 18.4698 101.255 18.1659C101.262 16.6683 101.258 15.1706 101.258 13.673C101.258 13.5317 101.26 13.3899 101.251 13.2491C101.219 12.772 101.126 12.6754 100.62 12.6584C100.168 12.643 99.7144 12.6745 99.2636 12.6477C98.3103 12.5915 97.432 13.0346 97.1148 14.2888C97.094 14.3709 97.0723 14.4531 97.0518 14.5352C96.73 15.823 96.406 17.1109 96.088 18.4C96.042 18.5872 96.0241 18.7813 95.9849 19.0201Z" fill="#113F92"/>
<path d="M83.0098 19.9412C83.376 19.9544 83.6834 19.9744 83.9912 19.9748C85.7193 19.9778 87.4478 19.9752 89.1759 19.9769C89.4024 19.9773 89.631 19.971 89.8541 20.0016C90.1649 20.0446 90.3863 20.2404 90.4284 20.5455C90.4706 20.8498 90.4672 21.1686 90.428 21.4741C90.3884 21.7848 90.1692 21.9725 89.8537 22.0125C89.6578 22.0372 89.4582 22.0397 89.2602 22.0402C86.5972 22.0419 83.9337 22.0444 81.2707 22.0402C80.1876 22.0385 80.0577 21.9053 80.0568 20.8043C80.0534 17.9154 80.0722 15.0265 80.0471 12.138C80.0377 11.0647 80.3885 10.9038 81.2979 10.9093C83.9609 10.9255 86.6244 10.9114 89.2874 10.917C90.3369 10.9191 90.5468 11.1472 90.488 12.1674C90.4561 12.7164 90.2535 12.9347 89.714 12.976C89.4884 12.993 89.261 12.9845 89.0345 12.9845C87.3064 12.9849 85.5779 12.9807 83.8498 12.9862C82.9289 12.9892 82.891 13.0309 82.8834 13.9404C82.8804 14.28 82.8795 14.6205 82.9021 14.9592C82.9208 15.2401 83.0537 15.3729 83.3244 15.4006C83.5492 15.4231 83.777 15.4214 84.0031 15.4214C85.3348 15.4231 86.6661 15.4218 87.9979 15.4223C88.1963 15.4223 88.3947 15.4201 88.5926 15.4261C88.7054 15.4295 88.8208 15.4342 88.9302 15.4589C89.4092 15.5665 89.5676 15.9045 89.5195 16.6969C89.488 17.2127 89.2904 17.4557 88.8349 17.5068C88.6386 17.5289 88.4389 17.5191 88.2405 17.5196C86.8241 17.5204 85.4072 17.5191 83.9907 17.5208C83.7642 17.5213 83.5369 17.5196 83.3117 17.5391C83.0669 17.56 82.9191 17.6775 82.9098 17.8992C82.8838 18.541 82.8042 19.1896 83.0098 19.9412Z" fill="#113F92"/>
<path d="M66.9273 28.7348C68.067 28.662 68.1623 28.6042 68.3765 27.827C68.2058 27.8253 68.0397 27.7862 67.9001 27.8304C67.605 27.9241 67.3385 27.8756 67.0805 27.7402C66.5454 27.4593 66.4738 26.7963 66.9302 26.3962C67.4884 25.9072 68.4314 26.1183 68.7137 26.8112C68.9146 27.3036 68.904 27.8147 68.7001 28.3037C68.4203 28.9749 67.6033 29.2298 66.9281 28.8757C66.9179 28.8702 66.9273 28.8267 66.9273 28.7348ZM67.6791 26.4507C67.3432 26.4498 67.0443 26.7158 67.0503 27.0103C67.0558 27.301 67.376 27.5798 67.6898 27.567C68.0176 27.5534 68.3288 27.2755 68.3263 26.998C68.3233 26.7082 68.0193 26.4515 67.6791 26.4507Z" fill="#113F92"/>
<path d="M71.4199 27.7464C71.2049 27.7868 71.0661 27.7988 70.9371 27.8409C70.6748 27.9269 70.4338 27.8673 70.2005 27.7558C69.639 27.4868 69.5662 26.7399 70.06 26.3594C70.6233 25.9262 71.4803 26.1283 71.7839 26.7799C72.0385 27.3264 72.0163 27.8801 71.7315 28.4086C71.4356 28.9581 70.7676 29.1734 70.1201 28.944C70.0886 28.933 70.0805 28.8564 70.0396 28.7585C70.3955 28.6099 70.8502 28.8181 71.1444 28.4976C71.256 28.3759 71.3517 28.235 71.4297 28.0894C71.462 28.0294 71.4284 27.9345 71.4199 27.7464ZM70.7642 26.4535C70.4398 26.4539 70.1205 26.728 70.1179 27.008C70.1154 27.2787 70.4517 27.5681 70.7659 27.5647C71.0818 27.5617 71.4071 27.2778 71.4109 27.0016C71.4148 26.7212 71.0984 26.4531 70.7642 26.4535Z" fill="#113F92"/>
<path d="M74.3353 26.6568C73.6634 26.4496 73.6634 26.4496 72.8852 26.8841C72.863 26.6824 72.843 26.5023 72.8281 26.3645C73.0406 26.1146 73.2777 26.1576 73.4978 26.1504C73.7235 26.1427 73.9495 26.1423 74.1752 26.1508C74.3961 26.1589 74.6167 26.1823 74.8849 26.2027C74.8849 26.3725 74.9253 26.5211 74.8785 26.6326C74.583 27.3344 74.2722 28.0298 73.9568 28.7226C73.8869 28.8759 73.7843 29.0265 73.5255 28.8891C73.6328 28.0979 74.2642 27.468 74.3353 26.6568Z" fill="#113F92"/>
<path d="M65.2695 28.8876C65.2295 28.7689 65.1605 28.6514 65.1546 28.5305C65.1367 28.1637 65.1448 27.796 65.1405 27.4282C65.132 26.7426 65.1312 26.7426 64.5781 26.2945C64.877 26.0821 65.1554 26.1323 65.4309 26.2498C65.5769 27.0465 65.5646 28.2701 65.2695 28.8876Z" fill="#113F92"/>
<path d="M77.2392 27.8104C77.2286 28.0385 77.0153 28.2258 76.7816 28.2122C76.5457 28.1985 76.3409 27.9896 76.352 27.7734C76.3631 27.5559 76.5891 27.3597 76.8165 27.3695C77.0532 27.3793 77.2499 27.5848 77.2392 27.8104Z" fill="#113F92"/>
<path d="M62.7016 27.7974C62.6973 28.0141 62.501 28.2043 62.2694 28.2162C62.005 28.2298 61.7926 28.0077 61.8186 27.7438C61.8403 27.5216 62.0536 27.3472 62.2796 27.3667C62.5113 27.3872 62.7054 27.5851 62.7016 27.7974Z" fill="#113F92"/>
</svg>
