<svg width="71" height="28" viewBox="0 0 71 28" fill="none" xmlns="http://www.w3.org/2000/svg">
<path d="M0.75703 11.3765C-0.763786 13.9798 0.209536 18.0063 1.88678 20.4273C2.75582 21.6422 3.57271 22.7269 4.73722 22.7269H4.80675C5.26546 22.698 5.71414 22.5801 6.12769 22.3798C6.61423 22.1392 7.14901 22.0116 7.69195 22.0067C8.21054 22.0125 8.72127 22.134 9.1867 22.3625C9.62831 22.5872 10.1163 22.706 10.6119 22.7096C11.9242 22.7096 12.7324 21.5121 13.4363 20.4707C13.9693 19.6927 14.3878 18.8423 14.679 17.9455C14.691 17.9109 14.6896 17.873 14.6751 17.8393C14.6607 17.8056 14.6342 17.7785 14.6008 17.7633C13.9239 17.474 13.3472 16.9923 12.9424 16.3782C12.5375 15.7642 12.3225 15.0448 12.3239 14.3096C12.3327 13.6609 12.5053 13.0249 12.8259 12.4605C13.1464 11.8962 13.6045 11.4219 14.1576 11.0815C14.1907 11.0582 14.2152 11.0247 14.2271 10.986C14.2404 10.9496 14.2404 10.9096 14.2271 10.8732C13.85 10.331 13.351 9.88448 12.77 9.56953C12.189 9.25458 11.5421 9.07993 10.8813 9.05957H10.5945C9.86644 9.10253 9.15297 9.28211 8.49147 9.58891C8.17235 9.73768 7.83244 9.83716 7.48339 9.88395C7.113 9.83337 6.75425 9.71885 6.42316 9.54552C5.84604 9.27927 5.2241 9.12328 4.58949 9.08561C3.8059 9.09975 3.03971 9.31871 2.36727 9.72067C1.69484 10.1226 1.13965 10.6935 0.75703 11.3765Z" fill="#181818"/>
<path d="M10.8558 4.78104C9.80876 4.8768 8.83984 5.37455 8.15305 6.16947C7.805 6.55253 7.5391 7.00265 7.37172 7.49213C7.20433 7.98162 7.139 8.50012 7.17973 9.01575C7.18346 9.04899 7.1984 9.07997 7.22208 9.10362C7.24577 9.12728 7.2768 9.14219 7.31008 9.14591H7.50127C7.99812 9.11874 8.48333 8.98537 8.92411 8.75482C9.3649 8.52427 9.75097 8.20192 10.0562 7.80955C10.7474 6.9981 11.0908 5.94753 11.0122 4.88517C11.0023 4.85238 10.9812 4.82405 10.9527 4.80505C10.9242 4.78605 10.8899 4.77756 10.8558 4.78104Z" fill="#181818"/>
<path d="M28.3775 9.18687V10.4771H28.0665V9.47497H24.0048L23.9985 10.4771H23.6875L23.6938 9.18687H23.935C24.2269 9.16182 24.43 8.91965 24.5443 8.46035C24.6627 8.00106 24.7347 7.35805 24.76 6.53133L24.8045 5.09082H27.6921V9.18687H28.3775ZM25.0583 6.55638C25.0329 7.2662 24.9758 7.84657 24.887 8.29751C24.8023 8.74846 24.6564 9.04491 24.4491 9.18687H27.3684V5.37892H25.0964L25.0583 6.55638Z" fill="#181818"/>
<path d="M30.5132 9.50003C30.2001 9.50003 29.9167 9.42904 29.6628 9.28708C29.4132 9.14512 29.2164 8.94887 29.0726 8.69835C28.9287 8.44365 28.8568 8.15764 28.8568 7.84031C28.8568 7.52298 28.9287 7.23906 29.0726 6.98853C29.2164 6.73383 29.4132 6.5355 29.6628 6.39354C29.9167 6.25158 30.2001 6.1806 30.5132 6.1806C30.8263 6.1806 31.1077 6.25158 31.3573 6.39354C31.6111 6.5355 31.81 6.73383 31.9538 6.98853C32.0977 7.23906 32.1696 7.52298 32.1696 7.84031C32.1696 8.15764 32.0977 8.44365 31.9538 8.69835C31.81 8.94887 31.6111 9.14512 31.3573 9.28708C31.1077 9.42904 30.8263 9.50003 30.5132 9.50003ZM30.5132 9.21819C30.7671 9.21819 30.9934 9.15973 31.1923 9.04282C31.3954 8.92591 31.554 8.76307 31.6683 8.5543C31.7867 8.34553 31.846 8.10753 31.846 7.84031C31.846 7.57309 31.7867 7.33509 31.6683 7.12632C31.554 6.91755 31.3954 6.75471 31.1923 6.6378C30.9934 6.52089 30.7671 6.46243 30.5132 6.46243C30.2594 6.46243 30.0309 6.52089 29.8278 6.6378C29.629 6.75471 29.4703 6.91755 29.3518 7.12632C29.2376 7.33509 29.1805 7.57309 29.1805 7.84031C29.1805 8.10753 29.2376 8.34553 29.3518 8.5543C29.4703 8.76307 29.629 8.92591 29.8278 9.04282C30.0309 9.15973 30.2594 9.21819 30.5132 9.21819Z" fill="#181818"/>
<path d="M34.5421 9.50003C34.2206 9.50003 33.9329 9.42904 33.679 9.28708C33.4252 9.14512 33.2263 8.94887 33.0825 8.69835C32.9386 8.44365 32.8667 8.15764 32.8667 7.84031C32.8667 7.51881 32.9386 7.23279 33.0825 6.98227C33.2263 6.72757 33.4252 6.53133 33.679 6.39354C33.9329 6.25158 34.2206 6.1806 34.5421 6.1806C34.8087 6.1806 35.0498 6.23279 35.2656 6.33717C35.4856 6.43738 35.6633 6.58561 35.7987 6.78185L35.5639 6.95095C35.4454 6.78811 35.2973 6.66703 35.1196 6.5877C34.9462 6.50419 34.7537 6.46243 34.5421 6.46243C34.284 6.46243 34.0513 6.52089 33.844 6.6378C33.6409 6.75054 33.4802 6.91129 33.3617 7.12006C33.2475 7.32883 33.1903 7.56891 33.1903 7.84031C33.1903 8.11171 33.2475 8.35179 33.3617 8.56056C33.4802 8.76933 33.6409 8.93217 33.844 9.04908C34.0513 9.16182 34.284 9.21819 34.5421 9.21819C34.7537 9.21819 34.9462 9.17852 35.1196 9.09919C35.2973 9.01568 35.4454 8.89251 35.5639 8.72967L35.7987 8.89877C35.6633 9.09501 35.4856 9.24533 35.2656 9.34971C35.0498 9.44992 34.8087 9.50003 34.5421 9.50003Z" fill="#181818"/>
<path d="M38.8762 6.48749H37.5815V9.47497H37.2642V6.48749H35.9696V6.20565H38.8762V6.48749Z" fill="#181818"/>
<path d="M42.259 6.20565L40.5582 9.91965C40.4313 10.2078 40.2832 10.4123 40.1139 10.5334C39.9489 10.6545 39.7522 10.7151 39.5237 10.7151C39.3714 10.7151 39.2276 10.69 39.0922 10.6399C38.961 10.5898 38.8489 10.5167 38.7558 10.4207L38.9145 10.1827C39.0837 10.3539 39.2889 10.4395 39.5301 10.4395C39.6908 10.4395 39.8283 10.3956 39.9426 10.308C40.0568 10.2203 40.1626 10.07 40.2599 9.85702L40.4376 9.46245L38.9462 6.20565H39.2826L40.609 9.1305L41.9353 6.20565H42.259Z" fill="#181818"/>
<path d="M45.9202 6.20565V9.47497H45.6029V6.48749H43.3436V9.47497H43.0263V6.20565H45.9202Z" fill="#181818"/>
<path d="M47.2902 6.20565H47.6076V7.69626H49.8542V6.20565H50.1715V9.47497H49.8542V7.97183H47.6076V9.47497H47.2902V6.20565Z" fill="#181818"/>
<path d="M52.8619 9.50003C52.5488 9.50003 52.2653 9.42904 52.0114 9.28708C51.7618 9.14512 51.5651 8.94887 51.4212 8.69835C51.2774 8.44365 51.2055 8.15764 51.2055 7.84031C51.2055 7.52298 51.2774 7.23906 51.4212 6.98853C51.5651 6.73383 51.7618 6.5355 52.0114 6.39354C52.2653 6.25158 52.5488 6.1806 52.8619 6.1806C53.1749 6.1806 53.4563 6.25158 53.7059 6.39354C53.9598 6.5355 54.1586 6.73383 54.3025 6.98853C54.4463 7.23906 54.5183 7.52298 54.5183 7.84031C54.5183 8.15764 54.4463 8.44365 54.3025 8.69835C54.1586 8.94887 53.9598 9.14512 53.7059 9.28708C53.4563 9.42904 53.1749 9.50003 52.8619 9.50003ZM52.8619 9.21819C53.1157 9.21819 53.3421 9.15973 53.5409 9.04282C53.744 8.92591 53.9027 8.76307 54.0169 8.5543C54.1354 8.34553 54.1946 8.10753 54.1946 7.84031C54.1946 7.57309 54.1354 7.33509 54.0169 7.12632C53.9027 6.91755 53.744 6.75471 53.5409 6.6378C53.3421 6.52089 53.1157 6.46243 52.8619 6.46243C52.608 6.46243 52.3795 6.52089 52.1764 6.6378C51.9776 6.75471 51.8189 6.91755 51.7005 7.12632C51.5862 7.33509 51.5291 7.57309 51.5291 7.84031C51.5291 8.10753 51.5862 8.34553 51.7005 8.5543C51.8189 8.76307 51.9776 8.92591 52.1764 9.04282C52.3795 9.15973 52.608 9.21819 52.8619 9.21819Z" fill="#181818"/>
<path d="M57.1817 6.20565H57.499V7.69626H59.7456V6.20565H60.0629V9.47497H59.7456V7.97183H57.499V9.47497H57.1817V6.20565Z" fill="#181818"/>
<path d="M62.5311 6.1806C62.9415 6.1806 63.2567 6.28498 63.4768 6.49375C63.6968 6.69834 63.8068 7.00106 63.8068 7.4019V9.47497H63.5021V8.89251C63.3964 9.08457 63.2419 9.23489 63.0389 9.34345C62.8358 9.44783 62.5925 9.50003 62.309 9.50003C61.9409 9.50003 61.649 9.41443 61.4332 9.24324C61.2217 9.07205 61.1159 8.84658 61.1159 8.56683C61.1159 8.29543 61.2132 8.07622 61.4078 7.9092C61.6067 7.73801 61.9219 7.65242 62.3534 7.65242H63.4894V7.38937C63.4894 7.08457 63.4048 6.85283 63.2356 6.69417C63.0706 6.5355 62.8273 6.45617 62.5058 6.45617C62.2858 6.45617 62.0742 6.49375 61.8711 6.56891C61.6723 6.64406 61.503 6.74427 61.3634 6.86953L61.2048 6.64406C61.3698 6.49792 61.5686 6.38519 61.8013 6.30586C62.034 6.22235 62.2773 6.1806 62.5311 6.1806ZM62.3534 9.24324C62.6285 9.24324 62.8612 9.18061 63.0516 9.05535C63.2462 8.93009 63.3921 8.74846 63.4894 8.51046V7.89668H62.3598C62.034 7.89668 61.7971 7.95513 61.649 8.07204C61.5051 8.18896 61.4332 8.34971 61.4332 8.5543C61.4332 8.76725 61.5136 8.93635 61.6744 9.06161C61.8352 9.1827 62.0615 9.24324 62.3534 9.24324Z" fill="#181818"/>
<path d="M28.6921 18.7487H25.4616L24.7361 20.7347H23.6875L26.632 13.125H27.5217L30.4716 20.7347H29.4283L28.6921 18.7487ZM25.7688 17.9229H28.3903L27.0769 14.3637L25.7688 17.9229Z" fill="#181818"/>
<path d="M36.1965 17.9699C36.1965 18.8305 35.997 19.5239 35.598 20.05C35.1991 20.5762 34.6589 20.8392 33.9775 20.8392C33.2819 20.8392 32.7347 20.6215 32.3357 20.1859V22.9089H31.356V15.0797H32.251L32.2987 15.7069C32.6976 15.2191 33.2519 14.9752 33.9616 14.9752C34.6501 14.9752 35.1938 15.2313 35.5927 15.7435C35.9952 16.2557 36.1965 16.9682 36.1965 17.8811V17.9699ZM35.2167 17.8602C35.2167 17.2225 35.079 16.7191 34.8036 16.3497C34.5283 15.9804 34.1505 15.7957 33.6703 15.7957C33.0772 15.7957 32.6323 16.0553 32.3357 16.5745V19.2765C32.6288 19.7922 33.0772 20.05 33.6809 20.05C34.1505 20.05 34.523 19.8671 34.7983 19.5013C35.0773 19.1319 35.2167 18.5849 35.2167 17.8602Z" fill="#181818"/>
<path d="M42.2868 17.9699C42.2868 18.8305 42.0873 19.5239 41.6883 20.05C41.2894 20.5762 40.7492 20.8392 40.0678 20.8392C39.3723 20.8392 38.825 20.6215 38.4261 20.1859V22.9089H37.4463V15.0797H38.3413L38.389 15.7069C38.7879 15.2191 39.3422 14.9752 40.0519 14.9752C40.7404 14.9752 41.2841 15.2313 41.683 15.7435C42.0855 16.2557 42.2868 16.9682 42.2868 17.8811V17.9699ZM41.307 17.8602C41.307 17.2225 41.1693 16.7191 40.894 16.3497C40.6186 15.9804 40.2408 15.7957 39.7606 15.7957C39.1675 15.7957 38.7226 16.0553 38.4261 16.5745V19.2765C38.7191 19.7922 39.1675 20.05 39.7712 20.05C40.2408 20.05 40.6133 19.8671 40.8887 19.5013C41.1676 19.1319 41.307 18.5849 41.307 17.8602Z" fill="#181818"/>
<path d="M48.6525 17.3428C47.7804 17.0954 47.1449 16.7922 46.7459 16.4334C46.3505 16.071 46.1528 15.625 46.1528 15.0954C46.1528 14.4961 46.3946 14.0013 46.8783 13.6111C47.3656 13.2174 47.9975 13.0205 48.7743 13.0205C49.3039 13.0205 49.7752 13.1216 50.1883 13.3236C50.6049 13.5257 50.9262 13.8045 51.1522 14.1599C51.3816 14.5153 51.4964 14.9038 51.4964 15.3254H50.4743C50.4743 14.8654 50.326 14.5048 50.0294 14.2435C49.7328 13.9787 49.3145 13.8463 48.7743 13.8463C48.2729 13.8463 47.881 13.956 47.5986 14.1755C47.3197 14.3916 47.1802 14.693 47.1802 15.0797C47.1802 15.3898 47.3126 15.6529 47.5774 15.8689C47.8457 16.0814 48.2994 16.2766 48.9385 16.4543C49.581 16.632 50.0824 16.8288 50.4425 17.0448C50.8062 17.2574 51.0745 17.5065 51.2475 17.7922C51.424 18.0779 51.5123 18.4142 51.5123 18.8009C51.5123 19.4176 51.2687 19.9124 50.7814 20.2852C50.2942 20.6546 49.6428 20.8392 48.8272 20.8392C48.2976 20.8392 47.8034 20.7399 47.3444 20.5413C46.8854 20.3392 46.5306 20.064 46.2799 19.7155C46.0328 19.3671 45.9092 18.9717 45.9092 18.5291H46.9313C46.9313 18.9891 47.1025 19.3532 47.445 19.6215C47.791 19.8863 48.2518 20.0187 48.8272 20.0187C49.3639 20.0187 49.7752 19.9107 50.0612 19.6946C50.3472 19.4786 50.4902 19.1842 50.4902 18.8114C50.4902 18.4386 50.3578 18.1511 50.093 17.949C49.8282 17.7434 49.348 17.5414 48.6525 17.3428Z" fill="#181818"/>
<path d="M53.9961 13.7104V15.0797H55.0658V15.8271H53.9961V19.334C53.9961 19.5605 54.0437 19.7312 54.1391 19.8462C54.2344 19.9577 54.3968 20.0135 54.6263 20.0135C54.7393 20.0135 54.8946 19.9925 55.0923 19.9507V20.7347C54.8346 20.8044 54.5839 20.8392 54.3403 20.8392C53.9025 20.8392 53.5724 20.7086 53.35 20.4472C53.1275 20.1859 53.0163 19.8148 53.0163 19.334V15.8271H51.973V15.0797H53.0163V13.7104H53.9961Z" fill="#181818"/>
<path d="M55.8496 17.8549C55.8496 17.3009 55.9591 16.8027 56.178 16.3602C56.4004 15.9177 56.7076 15.5762 57.0995 15.3358C57.4949 15.0954 57.9451 14.9752 58.4499 14.9752C59.2302 14.9752 59.8604 15.2417 60.3406 15.7748C60.8243 16.3079 61.0661 17.017 61.0661 17.902V17.9699C61.0661 18.5204 60.9584 19.0152 60.7431 19.4542C60.5312 19.8898 60.2258 20.2295 59.8269 20.4734C59.4314 20.7173 58.976 20.8392 58.4605 20.8392C57.6838 20.8392 57.0536 20.5727 56.5699 20.0396C56.0897 19.5065 55.8496 18.8009 55.8496 17.9229V17.8549ZM56.8347 17.9699C56.8347 18.5971 56.9812 19.1006 57.2742 19.4804C57.5708 19.8601 57.9662 20.05 58.4605 20.05C58.9583 20.05 59.3538 19.8584 59.6468 19.4751C59.9399 19.0884 60.0864 18.5483 60.0864 17.8549C60.0864 17.2347 59.9363 16.733 59.6362 16.3497C59.3396 15.963 58.9442 15.7696 58.4499 15.7696C57.9662 15.7696 57.5761 15.9595 57.2795 16.3393C56.983 16.7191 56.8347 17.2626 56.8347 17.9699Z" fill="#181818"/>
<path d="M65.0645 15.9473C64.9163 15.9229 64.7556 15.9107 64.5826 15.9107C63.94 15.9107 63.504 16.1807 63.2745 16.7208V20.7347H62.2948V15.0797H63.248L63.2639 15.733C63.5852 15.2278 64.0407 14.9752 64.6303 14.9752C64.8209 14.9752 64.9657 14.9996 65.0645 15.0484V15.9473Z" fill="#181818"/>
<path d="M68.2421 20.8392C67.4654 20.8392 66.8334 20.5884 66.3462 20.0866C65.8589 19.5814 65.6153 18.9072 65.6153 18.064V17.8863C65.6153 17.3253 65.723 16.8253 65.9384 16.3863C66.1573 15.9438 66.4609 15.5989 66.8493 15.3515C67.2412 15.1006 67.6648 14.9752 68.1203 14.9752C68.8652 14.9752 69.4443 15.2173 69.8573 15.7017C70.2704 16.186 70.477 16.8793 70.477 17.7818V18.1842H66.5951C66.6092 18.7417 66.7734 19.1929 67.0876 19.5378C67.4053 19.8793 67.8078 20.05 68.2951 20.05C68.6411 20.05 68.9341 19.9803 69.1742 19.841C69.4143 19.7016 69.6243 19.5169 69.8044 19.287L70.4028 19.7469C69.9227 20.4751 69.2024 20.8392 68.2421 20.8392ZM68.1203 15.7696C67.7249 15.7696 67.393 15.9125 67.1247 16.1982C66.8563 16.4804 66.6904 16.8776 66.6268 17.3898H69.4972V17.3166C69.469 16.8253 69.3348 16.4456 69.0947 16.1773C68.8547 15.9055 68.5298 15.7696 68.1203 15.7696Z" fill="#181818"/>
</svg>
