<svg width="80" height="21" viewBox="0 0 80 21" fill="none" xmlns="http://www.w3.org/2000/svg">
<path d="M28.6344 5.19872V6.49296H28.3243V5.48773H24.2735L24.2672 6.49296H23.957L23.9634 5.19872H24.2039C24.495 5.17359 24.6976 4.93066 24.8115 4.46993C24.9296 4.0092 25.0014 3.36418 25.0267 2.53486L25.071 1.08984H27.9509V5.19872H28.6344ZM25.3242 2.55999C25.2989 3.27203 25.2419 3.85423 25.1533 4.30658C25.0689 4.75893 24.9233 5.05631 24.7166 5.19872H27.6281V1.37885H25.3621L25.3242 2.55999Z" fill="#181818"/>
<path d="M30.7645 5.51286C30.4522 5.51286 30.1695 5.44165 29.9163 5.29925C29.6674 5.15684 29.4712 4.95998 29.3277 4.70867C29.1842 4.45318 29.1125 4.16627 29.1125 3.84794C29.1125 3.52962 29.1842 3.24481 29.3277 2.9935C29.4712 2.738 29.6674 2.53905 29.9163 2.39664C30.1695 2.25424 30.4522 2.18303 30.7645 2.18303C31.0767 2.18303 31.3573 2.25424 31.6063 2.39664C31.8594 2.53905 32.0578 2.738 32.2012 2.9935C32.3447 3.24481 32.4164 3.52962 32.4164 3.84794C32.4164 4.16627 32.3447 4.45318 32.2012 4.70867C32.0578 4.95998 31.8594 5.15684 31.6063 5.29925C31.3573 5.44165 31.0767 5.51286 30.7645 5.51286ZM30.7645 5.23014C31.0176 5.23014 31.2434 5.1715 31.4417 5.05422C31.6442 4.93694 31.8025 4.77359 31.9164 4.56417C32.0346 4.35475 32.0936 4.11601 32.0936 3.84794C32.0936 3.57988 32.0346 3.34114 31.9164 3.13172C31.8025 2.92229 31.6442 2.75894 31.4417 2.64167C31.2434 2.52439 31.0176 2.46575 30.7645 2.46575C30.5113 2.46575 30.2834 2.52439 30.0809 2.64167C29.8826 2.75894 29.7243 2.92229 29.6062 3.13172C29.4923 3.34114 29.4353 3.57988 29.4353 3.84794C29.4353 4.11601 29.4923 4.35475 29.6062 4.56417C29.7243 4.77359 29.8826 4.93694 30.0809 5.05422C30.2834 5.1715 30.5113 5.23014 30.7645 5.23014Z" fill="#181818"/>
<path d="M34.7826 5.51286C34.4619 5.51286 34.1749 5.44165 33.9218 5.29925C33.6686 5.15684 33.4703 4.95998 33.3268 4.70867C33.1833 4.45318 33.1116 4.16627 33.1116 3.84794C33.1116 3.52543 33.1833 3.23852 33.3268 2.98722C33.4703 2.73172 33.6686 2.53486 33.9218 2.39664C34.1749 2.25424 34.4619 2.18303 34.7826 2.18303C35.0484 2.18303 35.2889 2.23539 35.5041 2.3401C35.7235 2.44062 35.9008 2.58931 36.0358 2.78617L35.8016 2.9558C35.6834 2.79245 35.5358 2.67099 35.3585 2.59141C35.1855 2.50764 34.9935 2.46575 34.7826 2.46575C34.5252 2.46575 34.2931 2.52439 34.0863 2.64167C33.8838 2.75476 33.7235 2.91601 33.6053 3.12544C33.4914 3.33486 33.4344 3.57569 33.4344 3.84794C33.4344 4.12019 33.4914 4.36103 33.6053 4.57045C33.7235 4.77988 33.8838 4.94323 34.0863 5.0605C34.2931 5.17359 34.5252 5.23014 34.7826 5.23014C34.9935 5.23014 35.1855 5.19035 35.3585 5.11076C35.5358 5.027 35.6834 4.90344 35.8016 4.74009L36.0358 4.90972C35.9008 5.10658 35.7235 5.25736 35.5041 5.36207C35.2889 5.4626 35.0484 5.51286 34.7826 5.51286Z" fill="#181818"/>
<path d="M39.105 2.49088H37.8138V5.48773H37.4974V2.49088H36.2062V2.20816H39.105V2.49088Z" fill="#181818"/>
<path d="M42.4788 2.20816L40.7825 5.9338C40.6559 6.2228 40.5082 6.42804 40.3394 6.5495C40.1749 6.67097 39.9787 6.7317 39.7508 6.7317C39.5989 6.7317 39.4554 6.70657 39.3204 6.65631C39.1896 6.60604 39.0778 6.53275 38.985 6.43641L39.1432 6.19767C39.312 6.3694 39.5166 6.45526 39.7571 6.45526C39.9175 6.45526 40.0546 6.41128 40.1686 6.32332C40.2825 6.23537 40.388 6.08458 40.485 5.87097L40.6622 5.47516L39.1748 2.20816H39.5103L40.8331 5.14218L42.156 2.20816H42.4788Z" fill="#181818"/>
<path d="M46.1302 2.20816V5.48773H45.8137V2.49088H43.5605V5.48773H43.244V2.20816H46.1302Z" fill="#181818"/>
<path d="M47.4965 2.20816H47.813V3.70344H50.0536V2.20816H50.3701V5.48773H50.0536V3.97988H47.813V5.48773H47.4965V2.20816Z" fill="#181818"/>
<path d="M53.0532 5.51286C52.741 5.51286 52.4582 5.44165 52.2051 5.29925C51.9561 5.15684 51.7599 4.95998 51.6164 4.70867C51.473 4.45318 51.4012 4.16627 51.4012 3.84794C51.4012 3.52962 51.473 3.24481 51.6164 2.9935C51.7599 2.738 51.9561 2.53905 52.2051 2.39664C52.4582 2.25424 52.741 2.18303 53.0532 2.18303C53.3655 2.18303 53.6461 2.25424 53.895 2.39664C54.1482 2.53905 54.3465 2.738 54.49 2.9935C54.6334 3.24481 54.7052 3.52962 54.7052 3.84794C54.7052 4.16627 54.6334 4.45318 54.49 4.70867C54.3465 4.95998 54.1482 5.15684 53.895 5.29925C53.6461 5.44165 53.3655 5.51286 53.0532 5.51286ZM53.0532 5.23014C53.3064 5.23014 53.5321 5.1715 53.7305 5.05422C53.933 4.93694 54.0912 4.77359 54.2052 4.56417C54.3233 4.35475 54.3824 4.11601 54.3824 3.84794C54.3824 3.57988 54.3233 3.34114 54.2052 3.13172C54.0912 2.92229 53.933 2.75894 53.7305 2.64167C53.5321 2.52439 53.3064 2.46575 53.0532 2.46575C52.8 2.46575 52.5722 2.52439 52.3696 2.64167C52.1713 2.75894 52.0131 2.92229 51.8949 3.13172C51.781 3.34114 51.724 3.57988 51.724 3.84794C51.724 4.11601 51.781 4.35475 51.8949 4.56417C52.0131 4.77359 52.1713 4.93694 52.3696 5.05422C52.5722 5.1715 52.8 5.23014 53.0532 5.23014Z" fill="#181818"/>
<path d="M57.3614 2.20816H57.6779V3.70344H59.9185V2.20816H60.235V5.48773H59.9185V3.97988H57.6779V5.48773H57.3614V2.20816Z" fill="#181818"/>
<path d="M62.6966 2.18303C63.1059 2.18303 63.4202 2.28774 63.6397 2.49717C63.8591 2.7024 63.9688 3.00606 63.9688 3.40816V5.48773H63.665V4.90344C63.5595 5.09611 63.4055 5.24689 63.2029 5.35579C63.0004 5.4605 62.7578 5.51286 62.4751 5.51286C62.108 5.51286 61.8168 5.42699 61.6016 5.25527C61.3906 5.08354 61.2851 4.85736 61.2851 4.57674C61.2851 4.30449 61.3822 4.08459 61.5763 3.91705C61.7746 3.74533 62.089 3.65946 62.5194 3.65946H63.6523V3.39559C63.6523 3.08983 63.5679 2.85737 63.3991 2.69821C63.2346 2.53905 62.992 2.45947 62.6713 2.45947C62.4519 2.45947 62.2409 2.49717 62.0383 2.57256C61.84 2.64795 61.6712 2.74847 61.532 2.87413L61.3737 2.64795C61.5383 2.50135 61.7366 2.38827 61.9687 2.30869C62.2008 2.22492 62.4434 2.18303 62.6966 2.18303ZM62.5194 5.25527C62.7936 5.25527 63.0257 5.19244 63.2156 5.06679C63.4097 4.94113 63.5553 4.75893 63.6523 4.52019V3.90449H62.5257C62.2008 3.90449 61.9645 3.96313 61.8168 4.0804C61.6733 4.19768 61.6016 4.35894 61.6016 4.56417C61.6016 4.77778 61.6818 4.94742 61.8421 5.07307C62.0025 5.19453 62.2282 5.25527 62.5194 5.25527Z" fill="#181818"/>
<path d="M29.7458 16.3285C29.4912 16.6904 29.1352 16.9618 28.6778 17.1428C28.2238 17.3203 27.6941 17.4091 27.0887 17.4091C26.4765 17.4091 25.933 17.2674 25.4584 16.984C24.9837 16.6972 24.6157 16.2909 24.3543 15.7652C24.0963 15.2394 23.9639 14.63 23.957 13.9369V13.2865C23.957 12.1632 24.2202 11.2926 24.7464 10.6746C25.2761 10.0567 26.019 9.7477 26.9752 9.7477C27.7594 9.7477 28.3906 9.94743 28.8687 10.3469C29.3468 10.7429 29.6391 11.3063 29.7458 12.0369H28.7552C28.5694 11.0502 27.9778 10.5569 26.9804 10.5569C26.3165 10.5569 25.8127 10.789 25.4687 11.2534C25.1282 11.7143 24.9562 12.3834 24.9528 13.2609V13.8703C24.9528 14.7068 25.1454 15.3725 25.5306 15.8676C25.9158 16.3592 26.4369 16.6051 27.0939 16.6051C27.4653 16.6051 27.7904 16.5641 28.069 16.4821C28.3476 16.4002 28.578 16.2619 28.7603 16.0673V14.3927H27.0216V13.5938H29.7458V16.3285Z" fill="#181818"/>
<path d="M30.9995 14.4849C30.9995 13.942 31.1061 13.4538 31.3193 13.0202C31.536 12.5866 31.8353 12.252 32.2171 12.0164C32.6023 11.7808 33.0408 11.6631 33.5327 11.6631C34.2928 11.6631 34.9068 11.9242 35.3745 12.4466C35.8458 12.969 36.0814 13.6638 36.0814 14.5309V14.5975C36.0814 15.137 35.9765 15.6218 35.7666 16.052C35.5603 16.4787 35.2628 16.8116 34.8741 17.0506C34.4889 17.2896 34.0452 17.4091 33.543 17.4091C32.7863 17.4091 32.1723 17.1479 31.7011 16.6255C31.2334 16.1032 30.9995 15.4118 30.9995 14.5514V14.4849ZM31.9591 14.5975C31.9591 15.2121 32.1018 15.7054 32.3873 16.0776C32.6762 16.4497 33.0615 16.6358 33.543 16.6358C34.028 16.6358 34.4132 16.448 34.6987 16.0724C34.9842 15.6935 35.1269 15.1643 35.1269 14.4849C35.1269 13.8771 34.9807 13.3855 34.6884 13.0099C34.3994 12.631 34.0142 12.4415 33.5327 12.4415C33.0615 12.4415 32.6814 12.6276 32.3925 12.9997C32.1036 13.3718 31.9591 13.9044 31.9591 14.5975Z" fill="#181818"/>
<path d="M37.0255 14.4849C37.0255 13.942 37.1321 13.4538 37.3454 13.0202C37.5621 12.5866 37.8613 12.252 38.2431 12.0164C38.6283 11.7808 39.0669 11.6631 39.5587 11.6631C40.3189 11.6631 40.9328 11.9242 41.4006 12.4466C41.8718 12.969 42.1074 13.6638 42.1074 14.5309V14.5975C42.1074 15.137 42.0025 15.6218 41.7927 16.052C41.5863 16.4787 41.2888 16.8116 40.9001 17.0506C40.5149 17.2896 40.0712 17.4091 39.569 17.4091C38.8123 17.4091 38.1984 17.1479 37.7272 16.6255C37.2594 16.1032 37.0255 15.4118 37.0255 14.5514V14.4849ZM37.9851 14.5975C37.9851 15.2121 38.1279 15.7054 38.4134 16.0776C38.7023 16.4497 39.0875 16.6358 39.569 16.6358C40.054 16.6358 40.4392 16.448 40.7247 16.0724C41.0102 15.6935 41.1529 15.1643 41.1529 14.4849C41.1529 13.8771 41.0068 13.3855 40.7144 13.0099C40.4255 12.631 40.0403 12.4415 39.5587 12.4415C39.0875 12.4415 38.7074 12.6276 38.4185 12.9997C38.1296 13.3718 37.9851 13.9044 37.9851 14.5975Z" fill="#181818"/>
<path d="M43.0774 14.49C43.0774 13.6262 43.2786 12.9399 43.681 12.4312C44.0834 11.9191 44.6165 11.6631 45.2804 11.6631C45.9614 11.6631 46.4928 11.902 46.8746 12.38L46.921 11.7655H47.793V17.1735C47.793 17.8905 47.578 18.4555 47.148 18.8686C46.7215 19.2818 46.1471 19.4883 45.4248 19.4883C45.0224 19.4883 44.6286 19.403 44.2434 19.2323C43.8581 19.0615 43.5641 18.8277 43.3611 18.5306L43.8564 17.9622C44.2657 18.4641 44.7662 18.715 45.3578 18.715C45.8221 18.715 46.1833 18.5853 46.4412 18.3258C46.7026 18.0663 46.8333 17.701 46.8333 17.2298V16.7536C46.4515 17.1906 45.9304 17.4091 45.2701 17.4091C44.6165 17.4091 44.0869 17.1479 43.681 16.6255C43.2786 16.1032 43.0774 15.3913 43.0774 14.49ZM44.037 14.5975C44.037 15.2223 44.166 15.714 44.4239 16.0724C44.6819 16.4275 45.043 16.6051 45.5074 16.6051C46.1093 16.6051 46.5513 16.3336 46.8333 15.7908V13.2609C46.541 12.7317 46.1024 12.4671 45.5177 12.4671C45.0534 12.4671 44.6905 12.6463 44.4291 13.0048C44.1677 13.3633 44.037 13.8942 44.037 14.5975Z" fill="#181818"/>
<path d="M50.2746 17.3067H49.3201V9.44043H50.2746V17.3067Z" fill="#181818"/>
<path d="M54.1234 17.4091C53.3667 17.4091 52.751 17.1633 52.2764 16.6716C51.8017 16.1766 51.5644 15.5159 51.5644 14.6897V14.5156C51.5644 13.9659 51.6693 13.476 51.8791 13.0458C52.0924 12.6122 52.3882 12.2742 52.7665 12.0318C53.1483 11.786 53.561 11.6631 54.0047 11.6631C54.7305 11.6631 55.2946 11.9003 55.697 12.3749C56.0994 12.8495 56.3006 13.5289 56.3006 14.4132V14.8075H52.5189C52.5326 15.3538 52.6926 15.7959 52.9987 16.1339C53.3082 16.4685 53.7003 16.6358 54.175 16.6358C54.5121 16.6358 54.7975 16.5675 55.0314 16.4309C55.2653 16.2944 55.47 16.1134 55.6454 15.8881L56.2284 16.3387C55.7606 17.0523 55.059 17.4091 54.1234 17.4091ZM54.0047 12.4415C53.6195 12.4415 53.2962 12.5815 53.0348 12.8614C52.7734 13.138 52.6117 13.5272 52.5498 14.0291H55.3462V13.9574C55.3186 13.476 55.1879 13.1038 54.954 12.8409C54.7202 12.5746 54.4037 12.4415 54.0047 12.4415Z" fill="#181818"/>
<path d="M61.171 14.3876V17.3067H60.1804V9.85013H62.9509C63.773 9.85013 64.4162 10.0584 64.8805 10.4749C65.3483 10.8914 65.5822 11.4428 65.5822 12.1291C65.5822 12.8529 65.3535 13.4111 64.896 13.8037C64.442 14.1929 63.7902 14.3876 62.9406 14.3876H61.171ZM61.171 13.5835H62.9509C63.4806 13.5835 63.8865 13.4606 64.1685 13.2148C64.4506 12.9656 64.5916 12.6071 64.5916 12.1393C64.5916 11.6955 64.4506 11.3404 64.1685 11.0741C63.8865 10.8078 63.4995 10.6695 63.0077 10.6593H61.171V13.5835Z" fill="#181818"/>
<path d="M67.7336 17.3067H66.7791V9.44043H67.7336V17.3067Z" fill="#181818"/>
<path d="M72.7123 17.3067C72.6573 17.1974 72.6126 17.0028 72.5782 16.7228C72.1345 17.1803 71.6048 17.4091 70.9891 17.4091C70.4388 17.4091 69.9865 17.2555 69.6322 16.9482C69.2814 16.6375 69.106 16.2449 69.106 15.7703C69.106 15.1933 69.3261 14.746 69.7664 14.4285C70.2101 14.1076 70.8326 13.9471 71.634 13.9471H72.5627V13.5118C72.5627 13.1806 72.463 12.9178 72.2635 12.7231C72.064 12.5251 71.7699 12.4261 71.3812 12.4261C71.0407 12.4261 70.7552 12.5115 70.5248 12.6822C70.2943 12.8529 70.1791 13.0594 70.1791 13.3018H69.2195C69.2195 13.0253 69.3175 12.759 69.5136 12.5029C69.7131 12.2435 69.9813 12.0386 70.3184 11.8884C70.6589 11.7382 71.0321 11.6631 71.438 11.6631C72.0812 11.6631 72.5851 11.8235 72.9496 12.1444C73.3142 12.462 73.5034 12.9007 73.5172 13.4606V16.011C73.5172 16.5197 73.5825 16.9243 73.7132 17.2247V17.3067H72.7123ZM71.1284 16.5846C71.4277 16.5846 71.7114 16.5077 71.9797 16.3541C72.248 16.2005 72.4423 16.0007 72.5627 15.7549V14.618H71.8146C70.6452 14.618 70.0604 14.9577 70.0604 15.6371C70.0604 15.9342 70.1602 16.1663 70.3597 16.3336C70.5592 16.5009 70.8154 16.5846 71.1284 16.5846Z" fill="#181818"/>
<path d="M76.7572 15.9188L78.0573 11.7655H79.0789L76.8346 18.1619C76.4872 19.0837 75.9352 19.5446 75.1785 19.5446L74.9979 19.5293L74.6419 19.4627V18.6945L74.8999 18.715C75.2232 18.715 75.4743 18.6501 75.6531 18.5204C75.8354 18.3907 75.985 18.1534 76.102 17.8085L76.3135 17.2452L74.322 11.7655H75.3642L76.7572 15.9188Z" fill="#181818"/>
<path d="M17.7699 9.6152L14.2069 7.55859L11.2695 10.3962L13.9549 12.9995L17.7699 10.752C17.873 10.6937 17.9587 10.6092 18.0183 10.5071C18.0779 10.4049 18.1093 10.2888 18.1093 10.1706C18.1093 10.0524 18.0779 9.93624 18.0183 9.8341C17.9587 9.73195 17.873 9.64744 17.7699 9.58917V9.6152Z" fill="#181818"/>
<path d="M13.5979 7.21122L9.66989 4.94635L1.06641 0.538086L10.7823 9.92734L13.5979 7.21122Z" fill="#181818"/>
<path d="M1.20703 20.1059L9.68886 15.4373L13.3475 13.3286L10.7838 10.8555L1.20703 20.1059Z" fill="#181818"/>
<path d="M0.49394 0.919922L0.476562 19.872L10.3054 10.396L0.49394 0.919922Z" fill="#181818"/>
</svg>
