<svg width="18" height="18" viewBox="0 0 18 18" fill="none" xmlns="http://www.w3.org/2000/svg">
<path d="M8.99933 9.74088C11.6892 9.74088 13.8698 7.56031 13.8698 4.87042C13.8698 2.18053 11.6892 0 8.99933 0C6.30944 0 4.12891 2.18057 4.12891 4.87046C4.13221 7.55894 6.31084 9.73757 8.99933 9.74088ZM8.99933 2.2479C10.4477 2.2479 11.6219 3.42204 11.6219 4.87046C11.6219 6.31887 10.4477 7.49301 8.99933 7.49301C7.55091 7.49301 6.37677 6.31887 6.37677 4.87046C6.37677 3.42204 7.55094 2.2479 8.99933 2.2479Z" fill="#8B96B1"/>
<path d="M13.7695 12.0487C14.2988 11.7 14.6178 11.1089 14.6185 10.4751C14.6259 9.94912 14.329 9.4661 13.8565 9.23502C13.3709 8.9925 12.7897 9.04711 12.3579 9.3759C10.3564 10.835 7.64183 10.835 5.6404 9.3759C5.20789 9.04883 4.62769 8.99429 4.14179 9.23502C3.66941 9.46606 3.37244 9.94855 3.37901 10.4744C3.38014 11.108 3.69895 11.699 4.22798 12.0479C4.90671 12.4993 5.64584 12.8524 6.42344 13.0969C6.55533 13.1379 6.69143 13.1758 6.83182 13.2108L4.56745 15.425C3.97344 16.0013 3.95908 16.9501 4.53542 17.5441C5.11176 18.1381 6.06047 18.1525 6.65452 17.5761C6.66688 17.5641 6.67903 17.5519 6.69097 17.5395L8.99883 15.1507L11.3112 17.544C11.887 18.1385 12.8358 18.1536 13.4302 17.5777C14.0247 17.0019 14.0398 16.0531 13.464 15.4586C13.4519 15.4462 13.4397 15.434 13.4272 15.422L11.1665 13.21C11.3069 13.1741 11.4435 13.1359 11.5764 13.0954C12.3531 12.8519 13.0916 12.4994 13.7695 12.0487Z" fill="#8B96B1"/>
</svg>
