<svg width="17" height="16" viewBox="0 0 17 16" fill="none" xmlns="http://www.w3.org/2000/svg">
<g clip-path="url(#clip0_9485_34137)">
<path d="M8.45648 12.4556H9.39761C9.39761 12.4556 9.68212 12.4241 9.82683 12.2675C9.96072 12.1238 9.95579 11.8541 9.95579 11.8541C9.95579 11.8541 9.93709 10.591 10.5238 10.4049C11.1017 10.2218 11.844 11.6257 12.6305 12.1661C13.2251 12.5747 13.677 12.4851 13.677 12.4851L15.7808 12.4556C15.7808 12.4556 16.8814 12.3876 16.3596 11.5223C16.3173 11.4514 16.0554 10.8824 14.7953 9.71288C13.4762 8.48823 13.6534 8.68709 15.2423 6.56954C16.21 5.27991 16.5969 4.49235 16.4758 4.15567C16.3606 3.83474 15.6489 3.9194 15.6489 3.9194L13.2822 3.93319C13.2822 3.93319 13.107 3.90956 12.9761 3.98733C12.8491 4.06412 12.7674 4.24132 12.7674 4.24132C12.7674 4.24132 12.3923 5.23955 11.8922 6.08814C10.8379 7.87885 10.4155 7.97336 10.2433 7.86212C9.84258 7.60321 9.943 6.82057 9.943 6.26534C9.943 4.52976 10.2058 3.80619 9.4301 3.61915C9.17217 3.55713 8.98316 3.51578 8.32456 3.50889C7.47991 3.50003 6.76421 3.51184 6.3596 3.70972C6.08987 3.84163 5.88215 4.13598 6.00914 4.15272C6.16567 4.17339 6.52007 4.24821 6.7081 4.50417C6.95126 4.83396 6.9424 5.57623 6.9424 5.57623C6.9424 5.57623 7.08219 7.61896 6.61655 7.87295C6.2966 8.04719 5.85852 7.69181 4.91837 6.06648C4.43698 5.23463 4.07273 4.31417 4.07273 4.31417C4.07273 4.31417 4.00284 4.14287 3.87781 4.05132C3.72621 3.94008 3.51357 3.90464 3.51357 3.90464L1.26312 3.91842C1.26312 3.91842 0.925452 3.92826 0.801411 4.07495C0.691153 4.20588 0.792551 4.47562 0.792551 4.47562C0.792551 4.47562 2.55471 8.5975 4.5492 10.6757C6.37929 12.5806 8.45648 12.4556 8.45648 12.4556Z" fill="#8B96B1"/>
</g>
<defs>
<clipPath id="clip0_9485_34137">
<rect width="15.75" height="15.75" fill="white" transform="translate(0.75 0.125)"/>
</clipPath>
</defs>
</svg>
