<svg width="24" height="24" viewBox="0 0 24 24" fill="none" xmlns="http://www.w3.org/2000/svg">
<path fill-rule="evenodd" clip-rule="evenodd" d="M20.5528 4.84085C18.4675 2.75307 15.6942 1.60279 12.7396 1.60156C6.6515 1.60156 1.69666 6.55627 1.69421 12.646C1.69339 14.5927 2.20194 16.493 3.16856 18.168L1.60156 23.8916L7.4569 22.3556C9.07029 23.2357 10.8867 23.6995 12.7351 23.7H12.7398C18.8272 23.7 23.7826 18.7449 23.7849 12.6549C23.7861 9.70345 22.6383 6.9285 20.5528 4.84085ZM12.7396 21.8347H12.7358C11.0886 21.834 9.47299 21.3913 8.06327 20.555L7.72818 20.356L4.25353 21.2675L5.18097 17.8798L4.96261 17.5324C4.04361 16.0707 3.55833 14.3813 3.55915 12.6467C3.56105 7.58506 7.67948 3.46704 12.7433 3.46704C15.1954 3.46786 17.5005 4.424 19.2337 6.15928C20.9669 7.89457 21.9209 10.2011 21.9201 12.6542C21.9179 17.7162 17.7998 21.8347 12.7396 21.8347ZM17.7753 14.959C17.4994 14.8207 16.1424 14.1533 15.8894 14.0611C15.6366 13.9689 15.4524 13.9231 15.2686 14.1993C15.0845 14.4755 14.5557 15.0972 14.3946 15.2813C14.2336 15.4655 14.0728 15.4886 13.7967 15.3504C13.5207 15.2123 12.6315 14.9207 11.5772 13.9805C10.7569 13.2487 10.203 12.3449 10.0419 12.0688C9.88113 11.7923 10.0406 11.6574 10.163 11.5055C10.4618 11.1345 10.761 10.7456 10.8529 10.5615C10.945 10.3773 10.8989 10.2161 10.8298 10.078C10.761 9.9399 10.209 8.58147 9.97909 8.02871C9.75488 7.49078 9.52754 7.56343 9.35803 7.55499C9.19722 7.54697 9.01315 7.54533 8.82908 7.54533C8.64514 7.54533 8.34611 7.61431 8.09306 7.89076C7.84015 8.16707 7.12726 8.83466 7.12726 10.1931C7.12726 11.5515 8.11619 12.8638 8.25414 13.048C8.39209 13.2322 10.2003 16.0199 12.9687 17.2152C13.6272 17.4998 14.1412 17.6694 14.5421 17.7966C15.2033 18.0067 15.8048 17.977 16.2804 17.906C16.8107 17.8267 17.9131 17.2383 18.1433 16.5937C18.3732 15.949 18.3732 15.3965 18.3041 15.2813C18.2353 15.1662 18.0512 15.0972 17.7753 14.959Z" fill="white"/>
</svg>
